Patient4_TMGait_0pt6_02_right_26_EMG.mot
version=1
nRows=41
nColumns=33
inDegrees=no
endheader
time	1LAddLong	2LGlutMax	3LGlutMed	4LIliopsoas	5LSemiMemb	6LBicFemLong	7LRecFem	8LVastMed	9LVastLat	10LGasMed	11LTibAnt	12lTibPost	13LPeroneusLong	14LSol	15LExtDigLong	16LFlexDigLong	17RAddLong	18RGlutMax	19RGlutMed	20RIliopsoas	21RSemiMemb	22RBicFemLong	23RRecFem	24RVastMed	25RVastLat	26RGasMed	27RTibAnt	28RTibPost	29RPeroneusLong	30RSol	31RExtDigLong	32RFlexDigLong
31.617	0.028076	-0.71884	-0.019684	-0.043945	0.008087	-0.025482	-0.15915	-0.024414	0.086823	-0.075989	0.071869	0.00412	-0.06073	0.099335	-0.78857	0.005493	-0.058289	-1.2816	0.16403	0.1532	0.4097	-0.63873	0.3627	0.00351	-0.16403	0.008392	-0.86365	-0.020294	0.27908	-0.47089	-0.003052	-0.00061
31.618	-0.097809	-0.68924	-0.005798	-0.049438	0.009308	-0.011902	-0.003662	-0.027618	0.092773	-0.063629	0.040283	0.007172	-0.062866	0.040131	-0.94971	-0.003052	-0.039978	-1.4359	-0.009155	0.052948	0.18478	-0.61615	0.38498	0.079346	-0.11948	0.019379	-0.85297	-0.025635	0.37491	-0.61203	-0.001678	-0.010529
31.619	-0.007172	-0.64453	0.049896	-0.022888	0.003204	-0.009766	0.027313	-0.026245	0.077972	-0.066986	-0.068817	0.006866	-0.016022	0.03418	0.20172	0.007782	-0.041809	-1.4818	-0.098724	-0.068054	-0.16052	-0.45425	0.42938	0.11276	-0.11185	0.014954	-0.25162	-0.025787	0.08728	-1.0681	0.000153	-0.023651
31.62	-0.010834	-0.55283	0.079803	-0.018768	0.00885	-0.016632	0.06134	-0.023041	0.081482	-0.11292	-0.091248	0.002136	0.039978	0.028839	-0.69107	0.021515	-0.084839	-1.5828	-0.14343	-0.15366	-0.20706	-0.19882	0.43488	0.12528	0.006104	0.003052	-0.21515	-0.03479	-0.28412	-0.57266	-0.001526	-0.028229
31.621	0.000305	-0.39581	0.067902	-0.016327	0.006409	-0.015564	0.17578	-0.033875	0.061798	-0.12497	0.13107	0.004578	0.014801	0.006866	-0.19104	0.01236	-0.098724	-1.6481	-0.1268	-0.18463	0.12054	0.072327	0.54886	0.11749	0.1239	0.010223	-0.48126	-0.045471	-0.41473	-0.41794	-0.000458	-0.039825
31.622	0.006409	-0.27329	0.0737	-0.021973	0.007477	-0.015717	0.19318	-0.02594	0.065918	-0.10757	0.21683	0.014954	-0.040741	0.10605	-0.18906	0.005951	-0.054779	-1.7783	0.17822	-0.088654	0.25574	0.12207	0.5571	0.072937	0.075073	0.01709	-0.64194	-0.026398	-0.70587	-0.44784	0.001984	-0.023499
31.623	0.004578	-0.061646	0.077972	0.004883	0.005035	-0.009918	0.12833	-0.013123	0.037384	-0.065613	0.22186	0.02121	-0.1683	0.083313	0.28488	0.019226	-0.005798	-1.7337	0.20752	-0.044556	0.11139	0.037689	0.52963	-0.000916	0.025787	-0.080566	-0.40756	-0.061188	-0.87463	0.63522	-0.001678	-0.032959
31.624	-0.002747	0.17181	0.14145	0.013733	0.003815	-0.026093	0.096741	0.004883	0.025482	-0.067596	-0.052795	0.011749	-0.20203	0.11734	0.24384	0.014496	0.023193	-1.6803	0.024719	-0.015717	-0.012207	-0.050659	0.47226	-0.010223	-0.017548	-0.12833	-0.13931	-0.042419	-0.23636	1.2567	-0.003357	-0.030518
31.625	-0.000763	0.40161	0.16602	0.018616	0.004578	-0.018463	0.15137	0.01297	0.014343	-0.065308	-0.19898	-0.001678	-0.12054	0.1149	0.18738	0.020905	0.074005	-1.669	-0.42847	0.030518	-0.06897	-0.13596	0.41748	0.031586	-0.013885	-0.17487	0.066986	0.037689	0.69611	0.92575	0.000153	-0.044708
31.626	-0.001831	0.4744	0.095673	0.032959	0.008698	0.000458	0.16129	0.001984	0.012817	-0.056152	-0.61233	-0.006256	-0.026398	0.070953	0.12253	0.0177	0.091858	-1.8896	-0.74982	-0.028534	0.12787	-0.21637	0.35507	0.024872	-0.020447	-0.045166	0.1886	-0.1384	0.64163	1.7021	-0.004272	-0.036011
31.627	-0.007629	0.59982	0.08194	0.033569	0.009918	-0.002441	0.1506	-0.001678	0.010071	-0.058289	-0.38132	0.00061	0.001526	0.091553	-0.26474	0.005188	0.023193	-1.9254	-0.054321	-0.053558	0.025024	-0.2359	0.32791	0.047607	0.002441	-0.13763	0.14694	-0.58121	0.51788	2.3466	-0.002289	-0.035553
31.628	-0.010223	0.70877	0.06073	0.010223	0.00824	0.005035	0.093079	0.000916	-0.012665	-0.1532	0.011749	0.010834	0.059509	0.13809	0.22553	0.014191	-0.088501	-1.8929	-0.38742	0.14099	-0.21454	-0.28122	0.25711	0.040131	-0.008087	-0.093689	-0.059814	0.29266	0.32471	2.3814	-0.003357	-0.035553
31.629	-0.010071	0.82565	0.06012	-0.001831	0.01297	0.020294	0.036163	0.007019	-0.00885	-0.17166	0.25925	0.008087	0.023804	0.13001	-0.22125	0.005188	-0.10956	-1.9377	-0.60089	0.25223	-0.19989	-0.32776	0.23407	0.03006	-0.030365	-0.027313	0.049591	0.51315	0.0737	1.9041	-0.001831	-0.050507
31.63	-0.021667	0.952	0.10178	0.004883	0.001526	0.012207	0.10864	0.01358	-0.021667	-0.12848	0.10773	0.020752	0.040588	0.10468	-0.23804	-0.006866	-0.098572	-1.8308	0.012817	0.2182	0.014343	-0.44586	0.15976	0.12802	-0.016174	0.070496	0.64362	-0.074463	-0.075226	1.8106	-0.001068	-0.060577
31.631	-0.029755	1.0487	0.10941	-0.014038	0.002289	0.026703	0.24887	0.010986	-0.036011	-0.058899	0.13184	-0.00061	-0.056458	-0.00412	-0.3125	0.011444	-0.054779	-1.7633	-0.15945	0.16953	0.12375	-0.54047	0.22232	0.07309	-0.006561	0.11017	1.1066	-0.10178	-0.039215	0.57922	-0.005341	-0.044403
31.632	-0.027161	1.1024	0.091705	-0.031128	0.009308	0.026855	0.30106	0.024567	-0.034485	-0.012665	0.20248	0.02533	-0.074921	-0.043182	0.28442	0.002747	-0.01358	-1.707	-0.31326	0.044861	-0.014191	-0.39551	0.23346	-0.00885	-0.026703	0.12085	1.6043	0.068359	0.062408	-1.6097	-0.004425	-0.029907
31.633	-0.020905	1.161	0.057068	-0.062714	-0.001373	0.02243	0.19989	0.023193	-0.045929	0.003967	-0.05188	0.013885	-0.09079	-0.000305	0.35675	-0.003052	-0.016785	-1.696	-0.70816	0.058441	0.085602	-0.27847	0.26443	0	-0.041656	0.103	1.593	0.26688	0.08194	-2.146	-0.003662	-0.021362
31.634	0.015869	1.2015	0.068054	-0.048523	-0.006256	0.031281	0.080872	0.028534	-0.053406	0.010376	0.019379	0.015564	-0.13458	0.059509	0.12924	-0.003052	-0.062561	-1.5085	-0.90118	0.05188	0.13123	-0.074768	0.20706	0.12589	-0.042419	0.063171	0.30533	0.11643	0.12283	-1.9409	-0.003662	-0.014343
31.635	0.026245	1.2549	0.14755	-0.035248	0.009308	0.036469	0.006561	0.025177	-0.023651	0.009308	0.05188	0.014038	-0.082855	0.097504	-0.15472	-0.003967	-0.045319	-1.3629	-0.466	-0.03418	0.16693	0.085754	0.24216	0.09964	-0.036774	-0.020142	0.088043	0.030212	-0.007629	-1.6708	-0.008087	-0.024719
31.636	0	1.2556	0.1503	-0.030975	0.003662	0.033875	-0.041199	0.018616	-0.007935	0.039215	-0.028381	0.01297	-0.063934	0.1178	0.11734	-0.004425	-0.01236	-1.2733	-0.58105	-0.046844	-0.014496	0.13199	0.19623	0.067596	-0.028229	-0.017395	0.81116	-0.005646	-0.48218	-1.5257	-0.00061	-0.037994
31.637	-0.048523	1.2566	0.066833	-0.003662	-0.002136	0.028229	-0.050049	0.003967	-0.011444	0.042877	0.075073	0.014343	-0.054016	0.08194	0.027466	-0.001678	-0.019379	-1.2386	-0.40024	-0.068817	-0.13855	-0.019226	0.16235	-0.001373	-0.049286	0.049286	0.30991	-0.02243	-0.18341	-1.3405	-0.004272	-0.03952
31.638	-0.011749	1.2541	-0.011292	0.031891	0.002289	0.023499	0.011749	-0.001984	-0.002441	0.036163	0.18509	0.021057	-0.03479	0.035858	-0.084839	0.012665	0.004578	-1.0341	0.21286	-0.033569	-0.036621	-0.085754	0.11597	-0.015717	-0.089874	0.007782	-1.445	-0.005646	0.26825	-0.71869	-0.002747	-0.035095
31.639	-0.019684	1.2592	-0.061035	0.015106	-0.003967	0.047455	0.033875	0.004425	-0.014343	-0.001984	0.2446	0.023804	0.050354	0.015869	0.19348	0.027161	0.002747	-0.90057	1.4574	0.016022	0.18814	-0.018311	0.058136	-0.049286	-0.087891	-0.04776	-1.7108	-0.026093	0.35248	-0.25406	-0.006256	-0.02533
31.64	-0.014496	1.256	-0.029144	-0.030518	-0.000458	0.038452	0.025482	0.011749	-0.009308	-0.015259	-0.23163	0.029449	0.094147	-0.071259	0.29739	0.018921	-0.008698	-0.74966	0.97305	0.001831	-0.021362	0.063171	0.017853	0.033417	-0.081635	-0.072479	-1.4975	-0.025635	0.46921	-0.076294	-0.00061	-0.028992
31.641	-0.010834	1.2569	0.024567	-0.023651	0.004272	0.024261	0.041351	0.020752	-0.012512	-0.021057	-0.15427	0.011902	0.086212	-0.002747	0.20981	0.015411	-0.000153	-0.49789	-0.10239	0.088196	-0.39673	0.17532	-0.026245	0.070038	-0.12299	-0.037537	-0.21149	-0.035706	0.54489	0.27832	-0.001221	-0.017395
31.642	-0.014191	1.2547	0.061035	-0.010681	0.011749	0.026245	0.03891	0.016632	0.002289	0.023346	-0.053253	0.001831	0.025024	-0.021973	-0.047913	-0.000153	0.018921	-0.11063	-0.09613	0.095062	-0.19318	0.24216	-0.065613	0.083923	-0.11826	-0.032959	0.22217	-0.03891	0.56381	0.50995	-0.005646	0.002136
31.643	-0.001526	1.2468	0.076447	-0.011902	0.003052	0.026245	0.099182	0.014954	0.027771	0.064392	-0.026398	0.007019	-0.054169	-0.006561	-0.022736	-0.002136	0.027008	0.18692	-0.012665	0.026245	0.25131	0.20538	0.018616	0.005341	-0.1358	-0.055695	-0.080414	-0.065002	0.15457	1.0153	0.001678	-0.000305
31.644	0.004883	1.2067	0.072632	0.002441	0.009918	0.000763	0.083923	0.009766	0.030975	0.095673	-0.03891	0.001526	-0.13275	0.018005	0.29465	-0.010071	0.069275	0.37247	-0.023956	-0.032806	0.42114	0.20752	0.071716	-0.16174	0.19943	-0.13001	-0.30914	-0.048523	-0.24124	1.6379	-0.002289	0.003052
31.645	0.002747	1.2016	0.098114	-0.019836	0.010376	-0.005798	0.16571	-0.000458	0.04776	0.11902	-0.006714	0.006409	-0.17303	-0.036621	-0.054626	0.001221	0.026703	0.70435	-0.037994	-0.050812	0.019531	0.24124	0.23727	-0.12161	0.60623	-0.25665	-0.23529	0.019684	-0.23178	1.3998	-0.00351	0.007782
31.646	0.007629	1.1633	0.046997	-0.007782	0.001526	-0.012512	0.17685	0.001984	0.048676	0.068359	-0.08316	0.009155	-0.091248	-0.005951	0.04715	0.013123	-0.027924	0.96756	-0.39108	-0.003967	-0.37552	0.25589	0.18494	-0.091553	0.55252	-0.14542	-0.15854	0.074615	-0.034637	0.849	-0.005035	-0.001373
31.647	0.007629	1.1476	-0.030518	-0.017242	0.010986	-0.014343	0.15411	0.005646	0.032043	0.032806	-0.021057	0.012512	-0.044861	0.11917	-0.057068	0.014801	-0.041809	1.2196	-0.23483	0.020447	-0.19806	0.14465	0.12466	0.042572	0.42984	-0.085144	-0.003967	0.036163	-0.10696	0.23895	-0.004883	-0.011139
31.648	0.000153	1.0959	-0.066376	-0.006561	0.00885	-0.013733	0.23956	0.002747	0.041656	0.034027	-0.044861	0.013428	-0.049896	0.15518	-0.33966	0.004272	-0.048523	1.4276	-0.097809	0.026245	-0.02533	0.014954	0.06958	0.087738	0.30014	-0.009613	0.014648	-0.004272	-0.20935	-0.10498	-0.000305	-0.001526
31.649	0.00824	1.02	-0.049591	0.012512	0.004883	-0.006714	0.31494	0	0.054016	0.054016	-0.090942	0.011139	-0.031281	0.082397	-0.42252	0.00885	-0.039215	1.7702	-0.14908	0.033722	-0.017853	0.03952	0.036774	0.11108	0.24109	0.084229	0.076752	-0.06897	-0.12619	-0.39612	0.001526	-0.016174
31.65	0.005188	0.93597	-0.071259	0.025482	0.006866	-0.008545	0.39856	0.003357	0.067139	0.093231	0.071869	0.001068	-0.051727	-0.063477	-0.10452	-0.007477	-0.03067	2.1687	-0.24948	0.046234	0.05249	0.037689	0.091095	0.20828	-0.069427	0.10025	0.10086	-0.024109	-0.34515	0.10101	-0.003967	-0.023193
31.651	0.005646	0.80429	-0.088654	0.012512	0.004578	-0.028687	0.50888	-0.005798	0.070343	0.09964	0.29495	0.005035	-0.07843	-0.13458	-0.094452	0.000458	-0.063477	2.4025	-0.59097	0.001831	0.41962	0.074463	0.25101	0.086975	-0.40604	0.093536	0.13321	0.058136	-0.42938	0.24292	0.014954	-0.023651
31.652	0.010376	0.62637	-0.11353	0.021057	-0.000305	-0.027008	0.53513	-0.009918	0.058441	0.070953	0.12985	0.003815	-0.04364	-0.1471	0.0383	0.015106	-0.018005	2.5027	-0.055389	-0.008545	0.37186	0.16953	0.24368	-0.013733	-0.50308	0.10605	-0.092163	0.003967	-0.11002	0.58182	0.005493	-0.005798
31.653	0.010529	0.55267	-0.16113	0.018921	0.006561	-0.025177	0.49301	-0.001678	0.046997	0.059814	0.10819	0.002289	-0.061951	-0.09552	0.18341	0.016937	-0.005035	2.8368	0.72906	-0.03479	0.26352	0.32913	0.121	-0.072174	-0.36011	0.042877	0.15518	-0.008545	0.10803	0.91263	-0.003815	-0.006714
31.654	0.020294	0.42862	-0.18417	-0.023956	0.011444	-0.015717	0.56427	-0.007935	0.041504	0.059357	-0.15182	0.005798	-0.029144	0.024719	-0.12451	0.004272	0.00946	3.1485	0.73746	-0.047607	-0.025635	0.40634	0.1651	-0.096283	-0.17929	0.019226	1.1186	0.079956	0.13992	0.28091	-0.016174	0
31.655	0.020905	0.30609	-0.14038	-0.031281	0.010071	-0.02121	0.62332	-0.003967	0.030518	0.081177	-0.25772	0.000763	-0.048065	0.11993	0.64148	0.006866	0.044708	3.455	0.73929	-0.11017	-0.19058	0.4274	0.22705	-0.21545	-0.1268	0.091095	1.5082	0.040894	0.15015	-0.46936	-0.004883	0.002441
31.656	0.018768	0.16617	-0.12817	-0.027161	0.007172	-0.030518	0.77164	-0.005798	0.023804	0.1004	-0.44586	0.005341	0.020294	0.19318	0.59509	0.010834	0.053711	3.6783	0.28061	-0.1149	-0.032349	0.69809	0.066223	-0.13275	-0.05661	0.019989	1.9345	-0.03952	-0.041351	-0.92819	-0.00351	0.001678
31.657	0.018311	-0.003815	-0.13138	-0.027313	0.01358	-0.037689	0.73273	-0.011749	0.010681	0.068207	-0.20294	0.012054	-0.034332	0.23453	-0.50171	0.013123	0.045776	3.7053	0.003204	-0.1561	0.14069	0.71686	-0.045929	0.01358	0.046692	0.01358	1.1792	-0.019989	-0.074005	-0.81528	-0.005188	0
